<?xml version="1.0" encoding="utf-8"?>
<!-- Generator: Adobe Illustrator 19.0.0, SVG Export Plug-In . SVG Version: 6.00 Build 0)  -->
<svg version="1.1" id="图层_1" xmlns="http://www.w3.org/2000/svg" xmlns:xlink="http://www.w3.org/1999/xlink" x="0px" y="0px"
	 viewBox="0 0 40 40" style="enable-background:new 0 0 40 40;" xml:space="preserve">
<style type="text/css">
	.st0{fill:#FF452C;}
</style>
<g id="XMLID_1_">
	<path id="XMLID_11_" d="M4.4,40c-0.8,0-1.5-0.7-1.5-1.5c0-3.2,3.8-5.5,10.5-6.5v-0.4c-4.5-3.5-4.5-9.9-4.5-13.8
		c0-6.5,3.8-10.3,10.2-10.3h0.3c6.4,0,10.2,3.9,10.2,10.3c0,0.5,0,1,0,1.4c0,0.8-0.7,1.5-1.5,1.4c-0.8,0-1.5-0.7-1.4-1.5
		c0-0.5,0-0.9,0-1.4c0-4.9-2.4-7.4-7.2-7.4H19c-4.8,0-7.2,2.5-7.2,7.4c0,4.7,0.3,9.5,3.8,11.8c0.4,0.3,0.7,0.7,0.7,1.2v2.5
		c0,0.8-0.6,1.4-1.3,1.5c-5.9,0.6-9.1,2.4-9.1,3.7C5.9,39.3,5.2,40,4.4,40L4.4,40z M4.4,40"/>
	<path id="XMLID_8_" d="M34.1,40c-0.8,0-1.5-0.7-1.5-1.5c0-1.3-3.2-3.1-9.1-3.7c-0.8-0.1-1.3-0.7-1.3-1.5v-2.5
		c0-0.8,0.7-1.5,1.5-1.5c0.8,0,1.5,0.7,1.5,1.5v1.2c6.7,0.9,10.5,3.3,10.5,6.5C35.6,39.3,35,40,34.1,40L34.1,40z M34.1,40"/>
	<path id="XMLID_5_" class="st0" d="M23.9,26.7c-2,0-3.6-0.2-3.6-0.2c-0.7-0.2-1.2-1-1-1.7c0.2-0.7,0.9-1.2,1.6-1.2
		c3.7,0.4,9.3,0.1,10.3-2c0.3-0.7,1.2-1.1,2-0.7c0.7,0.4,1.1,1.2,0.7,2C32.3,26.1,27.4,26.7,23.9,26.7L23.9,26.7z M23.9,26.7"/>
	<path id="XMLID_2_" d="M37,25.2c-0.8,0-1.5-0.7-1.5-1.5v-5.2l-2-0.7c-0.6-0.2-1-0.8-1-1.4C32.6,9,26.6,3,19.3,3
		C11.9,3,5.9,9,5.9,16.4c0,0.5-0.2,0.9-0.6,1.2l-0.9,0.6v5.5c0,0.8-0.7,1.5-1.5,1.5c-0.8,0-1.5-0.7-1.5-1.5v-6.2
		c0-0.5,0.2-0.9,0.6-1.2L3,15.6C3.4,7,10.5,0,19.3,0C27.9,0,35,6.8,35.5,15.4l2,0.7c0.6,0.2,1,0.8,1,1.4v6.2
		C38.5,24.5,37.8,25.2,37,25.2L37,25.2z M37,25.2"/>
</g>
</svg>
