<?xml version="1.0" encoding="utf-8"?>
<!-- Generator: Adobe Illustrator 19.0.0, SVG Export Plug-In . SVG Version: 6.00 Build 0)  -->
<svg version="1.1" id="图层_1" xmlns="http://www.w3.org/2000/svg" xmlns:xlink="http://www.w3.org/1999/xlink" x="0px" y="0px"
	 viewBox="0 0 40 40" style="enable-background:new 0 0 40 40;" xml:space="preserve">
<style type="text/css">
	.st0{fill:#FF452C;}
</style>
<path id="XMLID_22_" d="M37.2,0H2.8C1.3,0,0,1.3,0,2.8v34.3C0,38.7,1.3,40,2.8,40h34.3c1.6,0,2.9-1.3,2.9-2.9V2.8
	C40,1.3,38.7,0,37.2,0L37.2,0z M37.2,37.2H2.8V2.8h34.3V37.2z M37.2,37.2"/>
<rect id="XMLID_8_" x="14.3" y="8.6" class="st0" width="17.2" height="2.9"/>
<rect id="XMLID_7_" x="8.6" y="8.6" width="2.9" height="2.9"/>
<rect id="XMLID_6_" x="14.3" y="14.3" class="st0" width="17.2" height="2.9"/>
<rect id="XMLID_5_" x="8.6" y="14.3" width="2.9" height="2.9"/>
<rect id="XMLID_4_" x="14.3" y="22.9" class="st0" width="17.2" height="2.9"/>
<rect id="XMLID_3_" x="8.6" y="22.9" width="2.9" height="2.9"/>
<rect id="XMLID_2_" x="14.3" y="28.6" class="st0" width="17.2" height="2.9"/>
<rect id="XMLID_1_" x="8.6" y="28.6" width="2.9" height="2.9"/>
</svg>
