<?xml version="1.0" encoding="utf-8"?>
<!-- Generator: Adobe Illustrator 19.0.0, SVG Export Plug-In . SVG Version: 6.00 Build 0)  -->
<svg version="1.1" id="图层_1" xmlns="http://www.w3.org/2000/svg" xmlns:xlink="http://www.w3.org/1999/xlink" x="0px" y="0px"
	 viewBox="0 0 40 40" style="enable-background:new 0 0 40 40;" xml:space="preserve">
<style type="text/css">
	.st0{fill:#FF452C;}
	.st1{fill:#666666;}
</style>
<path id="XMLID_61_" class="st0" d="M37.5,10.4c-1.6-2.8-3.8-5.1-6.3-6.8c-0.3-0.2-0.6-0.3-0.9-0.3c-0.8,0-1.3,0.7-1.3,1.4
	c0,0.6,0.2,1,0.8,1.3c4.7,2.9,7.5,8.2,7.5,13.9c0,5.7-2.9,11-7.5,13.9c-0.3,0.2-0.8,0.7-0.8,1.3c0,0.8,0.6,1.4,1.3,1.4
	c0.3,0,0.6-0.1,0.8-0.2c2.7-1.7,4.9-4,6.4-6.8c1.6-3,2.4-6.3,2.4-9.6S39,13.3,37.5,10.4L37.5,10.4z"/>
<path id="XMLID_59_" class="st0" d="M32.6,19.9c0-2-0.4-3.9-1.4-5.7c-0.9-1.7-2.2-3-3.8-4c0,0-0.4-0.2-0.8-0.2
	c-0.8,0-1.3,0.7-1.3,1.4c0,0.6,0.2,1,0.7,1.2c2.4,1.4,3.9,4.2,3.9,7.2c0,3-1.6,5.8-4.1,7.2c-0.4,0.2-0.7,0.7-0.7,1.2
	c0,0.8,0.6,1.4,1.3,1.4c0.3,0,0.7-0.2,0.7-0.2C30.5,27.7,32.6,23.9,32.6,19.9L32.6,19.9z"/>
<path id="XMLID_67_" d="M22.4,1.9c-0.1-0.9-0.4-1.4-1-1.7C21.2,0.1,20.9,0,20.7,0c-0.3,0-0.8,0.1-1,0.3s-2.3,2-4.7,3.8
	c-4.2,3.3-5.4,3.9-5.7,4H1.3C0.6,8.1,0,8.8,0,9.5v20.9c0,0.8,0.6,1.4,1.3,1.4h9.1c0.2,0.1,1.4,0.7,5.1,3.9c1.2,1.1,2.7,2.4,4.1,3.7
	l0.1,0.1c0.3,0.3,0.7,0.4,1.1,0.4c0.2,0,0.4,0,0.7-0.1c0.6-0.3,1-0.9,1-1.6v-7.1C22.5,31.1,22.4,2.2,22.4,1.9z M19.6,30.8v4.5
	c-0.7-0.7-1.3-1.2-2-1.8c-5-4.3-6.3-4.7-7.2-4.7H3.7c-0.8,0-1-0.2-1-1.1v-16c0-0.7,0.1-0.9,0.7-0.9h6.1c0.9,0,2.1-0.3,7.6-4.7
	c0.9-0.7,1.8-1.3,2.5-2V30.8z"/>
<path id="XMLID_55_" class="st1" d="M19.6,30.8"/>
</svg>
