<?xml version="1.0" encoding="utf-8"?>
<!-- Generator: Adobe Illustrator 19.0.0, SVG Export Plug-In . SVG Version: 6.00 Build 0)  -->
<svg version="1.1" id="图层_1" xmlns="http://www.w3.org/2000/svg" xmlns:xlink="http://www.w3.org/1999/xlink" x="0px" y="0px"
	 viewBox="0 0 40 40" style="enable-background:new 0 0 40 40;" xml:space="preserve">
<style type="text/css">
	.st0{fill:#FF452C;}
</style>
<g>
	<path d="M4.7,40c-2,0-3.6-1.6-3.6-3.6V3.6c0-2,1.6-3.6,3.6-3.6h30.5c2,0,3.6,1.6,3.6,3.6v32.8c0,0.9-0.3,1.8-0.9,2.5
		c-0.7,0.7-1.6,1.1-2.6,1.1H4.7z M4.7,2.5c-0.6,0-1,0.5-1,1.1v32.8c0,0.6,0.5,1.1,1.1,1.1h30.5c0.6,0,1.1-0.5,1.1-1.1V3.6
		c0-0.6-0.5-1.1-1.1-1.1H4.7z"/>
	<rect x="8.8" y="8.1" class="st0" width="22.5" height="2.5"/>
	<rect x="8.8" y="16" class="st0" width="22.5" height="2.5"/>
	<rect x="8.8" y="23.8" width="8.3" height="2.5"/>
</g>
</svg>
