<?xml version="1.0" encoding="utf-8"?>
<!-- Generator: Adobe Illustrator 19.0.0, SVG Export Plug-In . SVG Version: 6.00 Build 0)  -->
<svg version="1.1" id="图层_1" xmlns="http://www.w3.org/2000/svg" xmlns:xlink="http://www.w3.org/1999/xlink" x="0px" y="0px"
	 viewBox="0 0 40 40" style="enable-background:new 0 0 40 40;" xml:space="preserve">
<style type="text/css">
	.st0{fill:#FF452C;}
</style>
<path d="M20,40C9,40,0,31,0,20S9,0,20,0s20,9,20,20C40,31,31,40,20,40z M20,3.1C10.6,3.1,3.1,10.6,3.1,20S10.6,36.9,20,36.9
	S36.9,29.4,36.9,20C36.9,10.6,29.4,3.1,20,3.1z"/>
<path class="st0" d="M20.3,28.9L11.4,20l8.9-8.9l8.9,8.9L20.3,28.9z M15.7,20l4.6,4.6l4.6-4.6l-4.6-4.6L15.7,20z"/>
</svg>
