<?xml version="1.0" encoding="utf-8"?>
<!-- Generator: Adobe Illustrator 19.0.0, SVG Export Plug-In . SVG Version: 6.00 Build 0)  -->
<svg version="1.1" id="图层_1" xmlns="http://www.w3.org/2000/svg" xmlns:xlink="http://www.w3.org/1999/xlink" x="0px" y="0px"
	 viewBox="0 0 40 40" style="enable-background:new 0 0 40 40;" xml:space="preserve">
<style type="text/css">
	.st0{clip-path:url(#XMLID_11_);}
	.st1{fill:#FF452C;}
</style>
<g id="XMLID_5_">
	<defs>
		<rect id="XMLID_10_" x="0" width="39.9" height="40"/>
	</defs>
	<clipPath id="XMLID_11_">
		<use xlink:href="#XMLID_10_"  style="overflow:visible;"/>
	</clipPath>
	<g id="XMLID_6_" class="st0">
		<path id="XMLID_7_" d="M23,40h-6.1c-0.7,0-1.2-0.5-1.3-1.1L15,35.7c-0.9-0.3-1.8-0.7-2.6-1.1l-2.6,1.8c-0.5,0.4-1.3,0.3-1.8-0.1
			l-4.3-4.3c-0.5-0.5-0.5-1.2-0.2-1.8l1.9-2.6c-0.4-0.9-0.8-1.7-1.1-2.6l-3.1-0.5C0.5,24.3,0,23.7,0,23v-6.1c0-0.7,0.5-1.2,1.1-1.3
			L4.3,15c0.3-0.9,0.7-1.8,1.1-2.7L3.6,9.8C3.1,9.2,3.2,8.5,3.7,8L8,3.7c0.5-0.5,1.2-0.5,1.8-0.2l2.6,1.8c0.9-0.4,1.7-0.8,2.7-1.1
			c0.2-1,0.4-2.6,0.6-3.3c0.2-0.6,0.7-1,1.3-1H23c0.7,0,1.2,0.5,1.3,1.1l0.5,3.1c0.9,0.3,1.8,0.7,2.6,1.1l2.6-1.8
			c0.5-0.4,1.3-0.3,1.8,0.2L36.3,8c0.5,0.5,0.5,1.2,0.2,1.8l-1.8,2.6c0.4,0.9,0.8,1.8,1.1,2.7l3.1,0.5c0.7,0.1,1.1,0.7,1.1,1.3V23
			c0,0.7-0.5,1.2-1.1,1.3l-3.1,0.5c-0.3,0.9-0.6,1.8-1.1,2.7l1.8,2.6c0.4,0.5,0.3,1.3-0.2,1.8l-4.3,4.3c-0.5,0.5-1.2,0.5-1.8,0.2
			l-2.6-1.8c-0.9,0.4-1.7,0.8-2.6,1.1l-0.5,3.2C24.3,39.5,23.7,40,23,40z M18,37.2h3.8l0.5-2.8c0.1-0.5,0.5-0.9,1-1.1
			c1.3-0.3,2.5-0.8,3.6-1.5c0.5-0.3,1.1-0.3,1.5,0l2.3,1.7l2.7-2.7l-1.7-2.4c-0.3-0.5-0.3-1.1,0-1.5c0.6-1.1,1.1-2.3,1.5-3.6
			c0.1-0.5,0.6-0.9,1.1-1l2.8-0.5v-3.8l-2.8-0.5c-0.5-0.1-1-0.5-1.1-1c-0.3-1.2-0.8-2.4-1.4-3.5c-0.3-0.5-0.3-1.1,0-1.6l1.7-2.4
			l-2.7-2.7l-2.3,1.7c-0.4,0.3-1,0.3-1.5,0.1c-1.2-0.7-2.4-1.2-3.6-1.6c-0.5-0.1-0.9-0.6-1-1.1l-0.5-2.8H18c-0.1,0.9-0.3,2-0.4,2.8
			c-0.1,0.5-0.5,1-1,1.1C15.3,7,14.1,7.5,13,8.1c-0.5,0.3-1,0.3-1.5,0L9.2,6.4L6.4,9.1l1.7,2.4c0.3,0.5,0.3,1.1,0,1.6
			c-0.6,1.1-1.1,2.3-1.4,3.5c-0.1,0.5-0.6,0.9-1.1,1l-2.8,0.5v3.8l2.8,0.5c0.6,0.1,1,0.5,1.1,1.1C7,24.7,7.5,25.9,8.2,27
			c0.3,0.5,0.2,1-0.1,1.5l-1.7,2.4l2.7,2.7l2.3-1.7c0.4-0.3,1-0.3,1.4-0.1c1.1,0.7,2.3,1.2,3.5,1.5c0.6,0.1,1,0.5,1.1,1.1L18,37.2z"
			/>
	</g>
</g>
<path id="XMLID_2_" class="st1" d="M20,27.3c-4.1,0-7.4-3.3-7.4-7.3c0-4.1,3.3-7.4,7.3-7.4c4.1,0,7.4,3.3,7.4,7.3c0,0,0,0,0,0
	C27.3,24.1,24.1,27.3,20,27.3z M20,15.3c-2.6,0-4.6,2-4.6,4.6c0,2.6,2,4.6,4.6,4.6c2.5,0,4.6-2,4.6-4.6C24.6,17.5,22.6,15.4,20,15.3
	L20,15.3z"/>
</svg>
