<?xml version="1.0" encoding="utf-8"?>
<!-- Generator: Adobe Illustrator 19.0.0, SVG Export Plug-In . SVG Version: 6.00 Build 0)  -->
<svg version="1.1" id="图层_1" xmlns="http://www.w3.org/2000/svg" xmlns:xlink="http://www.w3.org/1999/xlink" x="0px" y="0px"
	 viewBox="0 0 40 40" style="enable-background:new 0 0 40 40;" xml:space="preserve">
<style type="text/css">
	.st0{fill:#FF452C;}
</style>
<g>
	<g>
		<polygon points="34.9,37.3 34.3,31.5 28.5,31.8 28.4,28.8 37,28.4 37.9,37 		"/>
	</g>
	<g>
		<path class="st0" d="M20,29.3L10.6,20l9.3-9.3l9.3,9.3L20,29.3z M14.8,20l5.2,5.2l5.2-5.2L20,14.8L14.8,20z"/>
	</g>
	<g>
		<path d="M20,40c-5.3,0-10.4-2.1-14.1-5.9C2.1,30.4,0,25.4,0,20C0,14.7,2.1,9.6,5.9,5.9C9.6,2.1,14.6,0,20,0c0,0,0,0,0,0
			c5.3,0,10.4,2.1,14.1,5.9C37.9,9.6,40,14.6,40,20l-3,0c0-4.6-1.8-8.8-5-12.1c-3.2-3.2-7.5-5-12-5c0,0,0,0,0,0
			c-4.6,0-8.8,1.8-12.1,5c-3.2,3.2-5,7.5-5,12.1c0,4.6,1.8,8.8,5,12.1c3.2,3.2,7.5,5,12,5c0,0,0,0,0,0c5.4,0,10.5-2.6,13.7-6.9
			l2.4,1.7C32.4,36.9,26.3,40,20,40C20,40,20,40,20,40z"/>
	</g>
</g>
</svg>
