<?xml version="1.0" encoding="utf-8"?>
<!-- Generator: Adobe Illustrator 19.0.0, SVG Export Plug-In . SVG Version: 6.00 Build 0)  -->
<svg version="1.1" id="图层_1" xmlns="http://www.w3.org/2000/svg" xmlns:xlink="http://www.w3.org/1999/xlink" x="0px" y="0px"
	 viewBox="0 0 40 40" style="enable-background:new 0 0 40 40;" xml:space="preserve">
<style type="text/css">
	.st0{fill:#FF452C;}
</style>
<g>
	<polygon points="25.6,40 25.6,40 25.6,40 	"/>
	<path d="M29.4,26.4c-2-1.5-4.1-2.4-5.9-2.4c-1.3,0-2.4,0.5-3.1,1.4c-0.1,0.1-0.4,0.2-0.6,0.2c-0.1,0-0.2,0-0.3-0.2c0,0,0,0,0,0
		c-1-1.3-1.9-2.7-2.8-4.1c-0.8-1.3-1.4-2.7-2-4.1c-0.1-0.4,0-0.7,0-0.7c0,0,0.1-0.1,0.1-0.1c1,0,1.9-0.5,2.6-1.3
		c1.3-1.5,1.9-4.2,1.5-7.1C18.3,3.4,15.8,0,13.1,0c0,0-0.1,0-0.1,0c-0.1,0-0.3,0-0.4,0C10.9,0,9.4,0.3,8,1.1
		C1.8,4.6,1.7,15.7,7.7,26.3C12.4,34.5,19.6,40,25.6,40c1.5,0,2.9-0.4,4.1-1c1.3-0.7,2.3-1.9,3.2-3.2c0.1-0.2,0.1-0.2,0.2-0.4
		C34.5,33,33,29.2,29.4,26.4z M31.3,34.1c-0.1,0.2-0.2,0.3-0.2,0.4c-0.6,1-1.5,2-2.5,2.5c-0.9,0.5-1.9,0.7-3,0.7
		c-5.1,0-11.6-5.2-15.9-12.6C4.5,16,4.2,5.8,9.2,3c1-0.6,2.2-0.8,3.5-0.7c0.1,0,0.2,0,0.3,0c0.1,0,0.1,0,0.2,0c1.4,0,3.2,2.6,3.6,6
		c0.3,2.3-0.1,4.4-1,5.4c-0.4,0.5-0.8,0.5-0.9,0.5c-0.1,0-1.2,0-1.9,0.9c-0.5,0.7-0.7,1.6-0.5,2.7c0,0.1,0,0.1,0.1,0.2
		c0.6,1.5,1.3,3,2.2,4.5c0.9,1.6,1.9,3.1,3,4.5c0,0.1,0.1,0.1,0.2,0.2c0.5,0.5,1.2,0.8,1.9,0.8c1.2,0,2.1-0.7,2.1-0.8
		c0.1-0.1,0.2-0.2,0.2-0.3c0.3-0.4,0.9-0.5,1.3-0.5c1.3,0,3,0.7,4.5,1.9C30.7,30.3,31.9,33,31.3,34.1z"/>
</g>
<path class="st0" d="M27.1,18.7c-0.1,0-0.1,0-0.2,0c-0.6-0.1-1-0.7-0.9-1.3c0.1-0.4,0-0.9-0.3-1.3c-0.3-0.4-0.6-0.6-1.1-0.7
	c-0.6-0.1-1-0.7-0.9-1.3c0.1-0.6,0.7-1,1.3-0.9c1,0.2,2,0.8,2.6,1.6c0.6,0.9,0.8,1.9,0.6,3C28.1,18.3,27.6,18.7,27.1,18.7L27.1,18.7
	z"/>
<path class="st0" d="M31,18.6c-0.1,0-0.1,0-0.2,0c-0.6-0.1-1-0.7-0.9-1.3c0.5-2.5-1.2-5-3.8-5.4c-0.6-0.1-1-0.7-0.9-1.3
	c0.1-0.6,0.7-1,1.3-0.9c3.8,0.7,6.3,4.3,5.6,8.1C32,18.2,31.5,18.6,31,18.6L31,18.6z"/>
<path class="st0" d="M35.4,19.9c-0.1,0-0.1,0-0.2,0c-0.6-0.1-1-0.7-0.9-1.3c0.5-2.5-0.1-5.1-1.6-7.2c-1.5-2.1-3.7-3.5-6.3-4
	c-0.6-0.1-1-0.7-0.9-1.3c0.1-0.6,0.7-1,1.3-0.9c3.2,0.6,5.9,2.3,7.7,4.9c1.8,2.6,2.5,5.8,1.9,8.9C36.4,19.5,35.9,19.9,35.4,19.9
	L35.4,19.9z"/>
<path class="st0" d="M35.4,19.9"/>
</svg>
