<?xml version="1.0" encoding="utf-8"?>
<!-- Generator: Adobe Illustrator 19.0.0, SVG Export Plug-In . SVG Version: 6.00 Build 0)  -->
<svg version="1.1" id="图层_1" xmlns="http://www.w3.org/2000/svg" xmlns:xlink="http://www.w3.org/1999/xlink" x="0px" y="0px"
	 viewBox="0 0 40 40" style="enable-background:new 0 0 40 40;" xml:space="preserve">
<style type="text/css">
	.st0{fill:#FF452C;}
	.st1{fill:none;}
</style>
<path id="XMLID_5_" d="M30,40H4.3C1.9,40,0,38,0,35.7V7.1c0-2.4,1.9-4.3,4.3-4.3h20c0.8,0,1.4,0.6,1.4,1.4c0,0.8-0.6,1.4-1.4,1.4
	h-20c-0.8,0-1.4,0.6-1.4,1.4v28.6c0,0.8,0.6,1.4,1.4,1.4H30c0.8,0,1.4-0.6,1.4-1.4V12.8c0-0.8,0.6-1.4,1.4-1.4
	c0.8,0,1.4,0.6,1.4,1.4v22.9C34.3,38,32.4,40,30,40L30,40z"/>
<path id="XMLID_4_" class="st0" d="M21.6,17.1c-0.4,0-0.7-0.1-1-0.4c-0.6-0.6-0.6-1.5,0-2L34.8,0.4c0.6-0.6,1.5-0.6,2,0
	c0.6,0.6,0.6,1.5,0,2L22.6,16.7C22.4,16.9,22,17.1,21.6,17.1L21.6,17.1z"/>
<path id="XMLID_3_" d="M15.7,17.1H7.1c-0.8,0-1.4-0.6-1.4-1.4s0.6-1.4,1.4-1.4h8.6c0.8,0,1.4,0.6,1.4,1.4S16.5,17.1,15.7,17.1
	L15.7,17.1z"/>
<path id="XMLID_2_" d="M24.3,25.7H7.1c-0.8,0-1.4-0.6-1.4-1.4c0-0.8,0.6-1.4,1.4-1.4h17.2c0.8,0,1.4,0.6,1.4,1.4
	C25.7,25,25.1,25.7,24.3,25.7L24.3,25.7z"/>
<path id="XMLID_1_" d="M24.3,25.7"/>
<rect id="XMLID_7_" x="-2.8" y="-0.4" class="st1" width="40.5" height="43.4"/>
</svg>
