<?xml version="1.0" encoding="utf-8"?>
<!-- Generator: Adobe Illustrator 19.0.0, SVG Export Plug-In . SVG Version: 6.00 Build 0)  -->
<svg version="1.1" id="图层_1" xmlns="http://www.w3.org/2000/svg" xmlns:xlink="http://www.w3.org/1999/xlink" x="0px" y="0px"
	 viewBox="0 0 40 40" style="enable-background:new 0 0 40 40;" xml:space="preserve">
<style type="text/css">
	.st0{clip-path:url(#SVGID_1_);}
	.st1{fill:#FF452C;}
	.st2{fill:none;}
</style>
<g id="XMLID_54_">
	<path id="XMLID_134_" d="M34.1,2.9C34.1,2.9,34.1,2.8,34.1,2.9L34.1,2.9C34.1,2.9,34.1,2.9,34.1,2.9L34.1,2.9z M34.1,2.9"/>
	<g id="XMLID_126_">
		<defs>
			<rect id="SVGID_5_" x="1.9" y="0" width="36.2" height="40"/>
		</defs>
		<clipPath id="SVGID_1_">
			<use xlink:href="#SVGID_5_"  style="overflow:visible;"/>
		</clipPath>
		<path id="XMLID_131_" class="st0" d="M25.5,4.3c-0.2,0.1-0.2,0.1-0.1,0.1C25.4,4.3,25.5,4.3,25.5,4.3C25.5,4.3,25.5,4.3,25.5,4.3
			L25.5,4.3z M25.5,4.3"/>
		<path id="XMLID_127_" class="st0" d="M13.8,23.5c1.2,2.1,2.9,3.8,5,5c2,1.1,4.4,1.8,6.7,1.7c2.3-0.1,4.5-0.7,6.5-1.9
			c2.1-1.3,3.7-3.1,4.8-5.3c1.1-2.4,1.5-5.1,1.1-7.7c-0.1-0.6-0.3-1.2-0.4-1.8c-0.1-0.2-0.1-0.3-0.2-0.5c0,0,0-0.1,0-0.1
			c0-0.1,0-0.2-0.1-0.3v-0.2c0-0.2,0-0.3,0-0.5l0.1-0.5c0-0.1,0-0.2,0-0.2c0,0,0-0.1,0-0.1c0-0.1,0-0.1,0-0.2l0.1-0.3
			c0-0.2,0.1-0.4,0.1-0.6L37.6,9C37.8,8.1,38,7.2,38,6.3c0.1-1.7-0.2-3.6-1.4-4.8c-0.2-0.2-0.4-0.4-0.7-0.6c0,0-0.1-0.1-0.1-0.1
			c-0.1-0.1-0.2-0.1-0.3-0.2c-0.1-0.1-0.2-0.1-0.3-0.1c-1.2-0.6-2.6-0.6-3.9-0.2c-1.5,0.5-2.8,1.3-4,2.3c-0.5,0.4-1,0.8-1.6,1.2
			c-0.1,0.1-0.2,0.2-0.4,0.3c0,0,0,0,0,0c0,0-0.1,0-0.1,0.1c0,0,0,0-0.1,0c0,0,0,0,0,0c-0.2,0.1-0.4,0.3-0.7,0.4
			c-0.1,0-0.2,0.1-0.2,0.1c0,0-0.1,0-0.1,0c0,0-0.1,0-0.1,0h0c-0.3,0-0.6,0.1-0.9,0.1c-1.1,0.1-2.2,0.5-3.2,0.9
			c-2.4,1-4.4,2.7-5.7,4.8c-1.2,2-2,4.2-2,6.6C12.1,19.2,12.7,21.5,13.8,23.5L13.8,23.5z M17,11.1c0.1-0.1,0.1-0.2,0.2-0.3
			c0,0,0.1-0.1,0.1-0.1c0,0,0,0,0,0c0.3-0.4,0.7-0.7,1-1c0.2-0.2,0.4-0.3,0.5-0.4C19,9.1,19.1,9,19.2,8.9c0,0,0.1-0.1,0.2-0.1
			c0.4-0.3,0.8-0.5,1.3-0.7c0.2-0.1,0.4-0.2,0.6-0.3l0.3-0.1c0,0,0.1,0,0.1,0h0c0,0,0,0,0,0h0c0.5-0.1,0.9-0.3,1.4-0.4
			c0.2,0,0.4-0.1,0.7-0.1c0.1,0,0.2,0,0.4,0h0h0.1c0.1,0,0.2,0,0.2,0c0.3,0,0.5-0.1,0.8-0.2c0.5-0.2,1-0.5,1.4-0.8
			c0.5-0.3,0.9-0.7,1.4-1c0.3-0.2,0.5-0.4,0.8-0.6c0.1-0.1,0.2-0.2,0.4-0.3c0.1,0,0.1-0.1,0.2-0.1c0,0,0,0,0.1,0
			c0.5-0.3,1.1-0.7,1.7-0.9l0.5-0.2c-0.1,0-0.1,0.1-0.2,0.1c0,0,0.1,0,0.2-0.1l0.2-0.1c0.2,0,0.3-0.1,0.5-0.1c0,0,0.1,0,0.2,0h-0.2
			c0.1,0,0.2,0,0.2,0c0.2,0,0.3,0,0.5,0h0.1c0.1,0,0.1,0,0.2,0c0.2,0,0.3,0.1,0.5,0.2c0,0,0,0-0.1,0c0,0,0.1,0,0.1,0h0
			c0.1,0,0.2,0.1,0.1,0c0.1,0,0.2,0.1,0.2,0.1c0,0,0.1,0.1,0.1,0.1l0,0c0,0,0.1,0,0.1,0.1c0,0,0,0,0,0c0,0,0,0,0,0c0,0,0,0,0,0
			l0.1,0.1c0.1,0.1,0.2,0.2,0.3,0.3l0,0c0,0.1,0.1,0.2,0.1,0.2c0,0.1,0.1,0.1,0.1,0.2c0,0,0,0,0,0.1c0,0.1,0.1,0.3,0.1,0.4
			c0,0.1,0.1,0.3,0.1,0.4c0,0,0,0.1,0,0.1v0.1v0c0,0.1,0,0.2,0,0.2c0,0.7-0.1,1.5-0.2,2.3c0,0.1,0,0.2,0,0.2c0,0,0,0.1,0,0.1
			c0,0.2-0.1,0.4-0.1,0.6c-0.1,0.4-0.1,0.7-0.2,1.1c-0.3,1.3-0.6,2.8-0.1,4.1c0,0,0,0,0,0c0,0,0,0,0,0l0.1,0.2
			c0,0.1,0.1,0.3,0.1,0.4c0.1,0.3,0.1,0.6,0.2,0.8c0.1,0.3,0.1,0.5,0.1,0.8c0,0.1,0,0.1,0,0.2v0v0.1c0,0.1,0,0.2,0,0.4
			c0,0.6,0,1.1,0,1.7c0,0.1,0,0.3,0,0.4c0,0.1,0,0.1,0,0.2v0c-0.1,0.3-0.1,0.6-0.2,0.9c-0.1,0.5-0.3,1.1-0.6,1.6
			c0,0-0.1,0.1-0.1,0.2c-0.1,0.1-0.1,0.2-0.2,0.4c-0.1,0.3-0.3,0.5-0.5,0.8l-0.4,0.6c-0.1,0.1-0.2,0.2-0.2,0.3c0,0-0.1,0.1-0.1,0.1
			c0,0,0,0,0-0.1c0,0,0,0.1-0.1,0.1c-0.3,0.4-0.7,0.7-1.1,1l-0.5,0.4c-0.1,0.1-0.2,0.1-0.3,0.2l0,0c-0.1,0-0.1,0.1-0.2,0.1
			c-0.4,0.3-0.8,0.5-1.3,0.7c-0.2,0.1-0.4,0.2-0.6,0.3c-0.1,0-0.1,0.1-0.2,0.1c0,0-0.1,0-0.1,0c0,0,0,0,0,0c0,0,0,0,0,0
			c-0.1,0-0.1,0-0.2,0.1c-0.5,0.1-0.9,0.3-1.4,0.3c-0.2,0-0.5,0.1-0.7,0.1c-0.1,0-0.1,0-0.2,0c-0.1,0-0.3,0-0.4,0
			c-0.5,0-1,0-1.5-0.1c-0.2,0-0.5-0.1-0.7-0.1h0h-0.1c0,0-0.1,0-0.1,0c-0.1,0-0.3-0.1-0.4-0.1c-0.5-0.1-1-0.3-1.4-0.5
			c-0.2-0.1-0.5-0.2-0.7-0.3c0.4,0.1,0,0-0.1-0.1c-0.1-0.1-0.3-0.1-0.4-0.2c-0.5-0.3-0.9-0.5-1.3-0.9l-0.3-0.2l-0.1-0.1c0,0,0,0,0,0
			l0,0c-0.2-0.2-0.4-0.3-0.5-0.5c-0.4-0.4-0.7-0.7-1-1.1c-0.1-0.1-0.1-0.2-0.2-0.3l0,0c0-0.1-0.1-0.1-0.1-0.1
			c-0.1-0.2-0.3-0.4-0.4-0.7c-0.2-0.4-0.5-0.9-0.6-1.3c0-0.1-0.1-0.2-0.1-0.3c0.1,0.3,0,0,0-0.1c-0.1-0.2-0.2-0.5-0.2-0.7
			c-0.1-0.5-0.2-1-0.3-1.4c0-0.1,0-0.1,0-0.2c0-0.1,0-0.2,0-0.3c0-0.3,0-0.5,0-0.8c0-0.5,0-1,0.1-1.4v0v-0.1c0,0,0-0.1,0-0.1
			c0-0.1,0-0.2,0.1-0.3c0.1-0.3,0.1-0.5,0.2-0.7c0.1-0.5,0.3-0.9,0.5-1.4c-0.1,0.3,0,0,0.1-0.1c0.1-0.1,0.1-0.2,0.2-0.3
			c0.1-0.2,0.2-0.4,0.4-0.6C16.7,11.5,16.9,11.3,17,11.1L17,11.1z M17,11.1"/>
	</g>
	<path id="XMLID_123_" d="M15.1,15.5L15.1,15.5C15.1,15.4,15.1,15.5,15.1,15.5L15.1,15.5z M15.1,15.5"/>
	<path id="XMLID_120_" d="M23.4,27.4L23.4,27.4C23.2,27.3,23.3,27.4,23.4,27.4L23.4,27.4z M23.4,27.4"/>
	<path id="XMLID_117_" d="M28.6,27c0,0,0.1,0,0.1,0C28.7,26.9,28.7,26.9,28.6,27L28.6,27z M28.6,27"/>
	<path id="XMLID_114_" d="M32.9,23.9C33,23.9,33,23.8,32.9,23.9L32.9,23.9z M32.9,23.9"/>
	<path id="XMLID_111_" d="M31,25.7C31,25.7,31,25.7,31,25.7C30.7,25.9,30.9,25.8,31,25.7L31,25.7z M31,25.7"/>
	<path id="XMLID_108_" d="M34.8,13.9C34.8,13.8,34.7,13.7,34.8,13.9L34.8,13.9z M34.8,13.9"/>
	<path id="XMLID_105_" d="M35.5,5.2L35.5,5.2c0-0.1,0-0.1,0-0.2C35.5,5,35.5,5,35.5,5.2L35.5,5.2z M35.5,5.2"/>
	<path id="XMLID_102_" d="M31.7,2.8C31.7,2.9,31.6,2.9,31.7,2.8L31.7,2.8z M31.7,2.8"/>
	<path id="XMLID_99_" d="M16.7,23.1C16.7,23.1,16.8,23.1,16.7,23.1C16.6,22.9,16.7,23.1,16.7,23.1L16.7,23.1z M16.7,23.1"/>
	<path id="XMLID_96_" d="M18.5,25.1C18.5,25.1,18.5,25.1,18.5,25.1C18.5,25.1,18.5,25.1,18.5,25.1C18.6,25.1,18.7,25.2,18.5,25.1
		L18.5,25.1z M18.5,25.1"/>
	<path id="XMLID_93_" d="M21.8,7.7C21.8,7.7,21.8,7.7,21.8,7.7C21.7,7.7,21.6,7.8,21.8,7.7L21.8,7.7z M21.8,7.7"/>
	<path id="XMLID_90_" d="M34.7,3.2c-0.1,0-0.1-0.1-0.1-0.1C34.5,3.1,34.5,3.1,34.7,3.2L34.7,3.2z M34.7,3.2"/>
	<path id="XMLID_87_" d="M17.1,28.8c-0.8-0.5-1.8-0.3-2.2,0.2c-0.8,1.3-1.6,2.5-2.5,3.8c-0.1,0.2-0.1,0.2-0.3,0.4
		C11.7,34,12,35,12.8,35.4c0.8,0.5,1.8,0.4,2.2-0.3c0.8-1.3,1.6-2.4,2.4-3.7l0.3-0.5C18.1,30.4,17.8,29.3,17.1,28.8L17.1,28.8z
		 M17.1,28.8"/>
	<path id="XMLID_84_" d="M21.9,20.7C21.9,20.8,22,20.8,21.9,20.7L21.9,20.7C21.8,20.7,21.8,20.7,21.9,20.7L21.9,20.7z M21.9,20.7"/>
	<path id="XMLID_81_" class="st1" d="M19.3,21.9c1,1.4,3.1,2.5,4.9,2.6c1.9,0.1,3.7-0.8,4.9-2.7c0.4-0.6,0-1.3-0.5-1.5
		c-0.5-0.3-1.1-0.4-1.5,0.2c-0.3,0.4-0.5,0.6-1.1,1.1c-0.5,0.3-0.8,0.4-1.4,0.5c-0.5,0.1-1.2,0-2.1-0.5c-0.9-0.5-1.5-1.1-1.7-2.4
		c0-1.1,0.1-1.4,0.5-2.2c0.4-0.6,0.8-1,1.5-1.4c0.7-0.3,1.4-0.4,2.2-0.2c0.5,0.1,1,0.3,1.5,0.6c0.6,0.3,1.1,0,1.4-0.5
		c0.6-1,1.3-2,1.9-3c0.1-0.1,0.2-0.4,0.3-0.5c0.3-0.4,0.1-1-0.4-1.4c-0.6-0.4-1.2-0.3-1.5,0.2c-0.6,0.9-1,1.6-1.6,2.4
		c-1.3-0.5-3-0.7-4.5-0.2c-1.6,0.6-3.1,2.2-3.5,3.9C18,18.6,18.4,20.5,19.3,21.9L19.3,21.9z M19.3,21.9"/>
	<path id="XMLID_78_" d="M20.6,19c0-0.1,0-0.2,0-0.1C20.6,18.9,20.6,18.9,20.6,19L20.6,19z M20.6,19"/>
	<path id="XMLID_75_" d="M25.9,21.5C25.9,21.4,26.1,21.4,25.9,21.5L25.9,21.5z M25.9,21.5"/>
	<path id="XMLID_72_" d="M26.8,21C26.8,21,26.8,21,26.8,21L26.8,21z M26.8,21"/>
	<path id="XMLID_69_" d="M23.1,13.6c0.1,0,0.1,0,0.1,0C23.2,13.6,23.1,13.6,23.1,13.6L23.1,13.6z M23.1,13.6"/>
	<path id="XMLID_66_" d="M22.1,14.1C22.1,14.2,22.1,14.2,22.1,14.1C22.2,14.1,22.2,14.1,22.1,14.1C22.2,14.1,22.1,14.1,22.1,14.1
		L22.1,14.1z M22.1,14.1"/>
	<path id="XMLID_63_" class="st1" d="M30.4,9.1c0.6,0.4,1.4,0.2,1.8-0.4c0.3-0.6,0.2-1.4-0.4-1.8c-0.6-0.4-1.4-0.2-1.8,0.4
		C29.7,7.9,29.8,8.7,30.4,9.1L30.4,9.1z M30.4,9.1"/>
	<path id="XMLID_60_" d="M29.9,32.2c-0.9,0.2-1.6,1-1.5,1.5l0.7,4.6l0.1,0.4c0.1,0.7,1,1.3,1.9,1.2c0.9-0.2,1.6-1,1.4-1.8
		c-0.3-1.5-0.4-2.8-0.7-4.3c0-0.2-0.1-0.4-0.1-0.7C31.7,32.7,30.8,32,29.9,32.2L29.9,32.2z M29.9,32.2"/>
	<path id="XMLID_57_" d="M7.6,17.9c-0.2,0.1-0.3,0.1-0.5,0.1c-1.5,0.4-2.7,0.7-4.2,1.2c-0.8,0.2-1.1,1.1-0.9,2
		c0.2,0.9,1.2,1.4,1.9,1.2c0.2-0.1,0.2-0.1,0.4-0.1c1.5-0.4,2.8-0.7,4.2-1.2c0.7-0.2,1.2-1.1,1-2C9.3,18.2,8.2,17.7,7.6,17.9
		L7.6,17.9z M7.6,17.9"/>
	<rect id="SVGID_7_" x="1.9" y="0" class="st2" width="36.2" height="40"/>
</g>
</svg>
